<mxfile><diagram id="MkU0K9SvUidhCmnn8r5E" name="ページ1"><mxGraphModel dx="2463" dy="1629" grid="1" gridSize="10" guides="1" tooltips="1" connect="1" arrows="1" fold="1" page="1" pageScale="1" pageWidth="827" pageHeight="1169" background="none" math="0" shadow="0"><root><mxCell id="0"/><mxCell id="1" parent="0"/><mxCell id="2" value="registerAdmin.vue" style="swimlane;" parent="1" vertex="1"><mxGeometry x="20" y="50" width="427" height="250" as="geometry"/></mxCell><mxCell id="8g1K3p20LejxtBm2tgvX-18" value="- name:string" style="text;html=1;align=center;verticalAlign=middle;resizable=0;points=[];autosize=1;strokeColor=none;" parent="2" vertex="1"><mxGeometry x="10" y="30" width="90" height="20" as="geometry"/></mxCell><mxCell id="8g1K3p20LejxtBm2tgvX-19" value="- errorOfName:stirng" style="text;html=1;align=center;verticalAlign=middle;resizable=0;points=[];autosize=1;strokeColor=none;" parent="2" vertex="1"><mxGeometry x="10" y="50" width="130" height="20" as="geometry"/></mxCell><mxCell id="8g1K3p20LejxtBm2tgvX-20" value="- mailAddress:string" style="text;html=1;align=center;verticalAlign=middle;resizable=0;points=[];autosize=1;strokeColor=none;" parent="2" vertex="1"><mxGeometry x="10" y="70" width="120" height="20" as="geometry"/></mxCell><mxCell id="8g1K3p20LejxtBm2tgvX-21" value="- errorOfMailAddress:string" style="text;html=1;align=center;verticalAlign=middle;resizable=0;points=[];autosize=1;strokeColor=none;" parent="2" vertex="1"><mxGeometry x="10" y="90" width="160" height="20" as="geometry"/></mxCell><mxCell id="8g1K3p20LejxtBm2tgvX-22" value="- address:string" style="text;html=1;align=center;verticalAlign=middle;resizable=0;points=[];autosize=1;strokeColor=none;" parent="2" vertex="1"><mxGeometry x="10" y="110" width="100" height="20" as="geometry"/></mxCell><mxCell id="8g1K3p20LejxtBm2tgvX-23" value="- errorOfAddress:string" style="text;html=1;align=center;verticalAlign=middle;resizable=0;points=[];autosize=1;strokeColor=none;" parent="2" vertex="1"><mxGeometry x="10" y="130" width="140" height="20" as="geometry"/></mxCell><mxCell id="8g1K3p20LejxtBm2tgvX-24" value="- phoneNumber:string" style="text;html=1;align=center;verticalAlign=middle;resizable=0;points=[];autosize=1;strokeColor=none;" parent="2" vertex="1"><mxGeometry x="10" y="150" width="130" height="20" as="geometry"/></mxCell><mxCell id="8g1K3p20LejxtBm2tgvX-25" value="- errorOfPhone:string" style="text;html=1;align=center;verticalAlign=middle;resizable=0;points=[];autosize=1;strokeColor=none;" parent="2" vertex="1"><mxGeometry x="10" y="170" width="130" height="20" as="geometry"/></mxCell><mxCell id="8g1K3p20LejxtBm2tgvX-26" value="- password:string" style="text;html=1;align=center;verticalAlign=middle;resizable=0;points=[];autosize=1;strokeColor=none;" parent="2" vertex="1"><mxGeometry x="190" y="40" width="110" height="20" as="geometry"/></mxCell><mxCell id="8g1K3p20LejxtBm2tgvX-27" value="- errorOfPassword:string" style="text;html=1;align=center;verticalAlign=middle;resizable=0;points=[];autosize=1;strokeColor=none;" parent="2" vertex="1"><mxGeometry x="190" y="64" width="150" height="20" as="geometry"/></mxCell><mxCell id="8g1K3p20LejxtBm2tgvX-31" value="- errorOfCheckPassword:string" style="text;html=1;align=center;verticalAlign=middle;resizable=0;points=[];autosize=1;strokeColor=none;" parent="2" vertex="1"><mxGeometry x="190" y="112" width="180" height="20" as="geometry"/></mxCell><mxCell id="8g1K3p20LejxtBm2tgvX-36" value="- checkPassword:string" style="text;html=1;align=center;verticalAlign=middle;resizable=0;points=[];autosize=1;strokeColor=none;" parent="2" vertex="1"><mxGeometry x="190" y="88" width="140" height="20" as="geometry"/></mxCell><mxCell id="8g1K3p20LejxtBm2tgvX-33" value="- errorOfZipCode:string" style="text;html=1;align=center;verticalAlign=middle;resizable=0;points=[];autosize=1;strokeColor=none;" parent="2" vertex="1"><mxGeometry x="190" y="160" width="140" height="20" as="geometry"/></mxCell><mxCell id="8g1K3p20LejxtBm2tgvX-32" value="- zipCode:string" style="text;html=1;align=center;verticalAlign=middle;resizable=0;points=[];autosize=1;strokeColor=none;" parent="2" vertex="1"><mxGeometry x="190" y="136" width="100" height="20" as="geometry"/></mxCell><mxCell id="8g1K3p20LejxtBm2tgvX-37" value="" style="endArrow=none;html=1;" parent="2" edge="1"><mxGeometry width="50" height="50" relative="1" as="geometry"><mxPoint y="200" as="sourcePoint"/><mxPoint x="427" y="200" as="targetPoint"/></mxGeometry></mxCell><mxCell id="8g1K3p20LejxtBm2tgvX-39" value="+ async registerAdmin():Promise&amp;lt;void&amp;gt;" style="text;html=1;align=center;verticalAlign=middle;resizable=0;points=[];autosize=1;strokeColor=none;" parent="2" vertex="1"><mxGeometry y="210" width="230" height="20" as="geometry"/></mxCell><mxCell id="7" value="itemDetail.vue" style="swimlane;" parent="1" vertex="1"><mxGeometry x="22" y="700" width="410" height="230" as="geometry"/></mxCell><mxCell id="hY5s72IZADYShjEi0Xvi-15" value="- selectToppings:number" style="text;html=1;align=center;verticalAlign=middle;resizable=0;points=[];autosize=1;strokeColor=none;" parent="7" vertex="1"><mxGeometry x="2" y="46" width="150" height="20" as="geometry"/></mxCell><mxCell id="hY5s72IZADYShjEi0Xvi-17" value="- size:string" style="text;html=1;align=center;verticalAlign=middle;resizable=0;points=[];autosize=1;strokeColor=none;" parent="7" vertex="1"><mxGeometry x="5" y="66" width="80" height="20" as="geometry"/></mxCell><mxCell id="hY5s72IZADYShjEi0Xvi-19" value="- quantity:number" style="text;html=1;align=center;verticalAlign=middle;resizable=0;points=[];autosize=1;strokeColor=none;" parent="7" vertex="1"><mxGeometry x="5" y="87" width="110" height="20" as="geometry"/></mxCell><mxCell id="hY5s72IZADYShjEi0Xvi-25" value="" style="endArrow=none;html=1;" parent="7" edge="1"><mxGeometry width="50" height="50" relative="1" as="geometry"><mxPoint x="-1" y="130" as="sourcePoint"/><mxPoint x="410" y="130" as="targetPoint"/></mxGeometry></mxCell><mxCell id="hY5s72IZADYShjEi0Xvi-27" value="+ async created():Promise&amp;lt;void&amp;gt;　&lt;br&gt;　　商品IDから対応する商品を1件取得&lt;br&gt;　商品IDから対応する画像を表示" style="text;html=1;align=center;verticalAlign=middle;resizable=0;points=[];autosize=1;strokeColor=none;" parent="7" vertex="1"><mxGeometry x="-11" y="131" width="230" height="50" as="geometry"/></mxCell><mxCell id="hY5s72IZADYShjEi0Xvi-46" value="- currentItem:Item" style="text;html=1;align=center;verticalAlign=middle;resizable=0;points=[];autosize=1;strokeColor=none;" parent="7" vertex="1"><mxGeometry x="4" y="28" width="110" height="20" as="geometry"/></mxCell><mxCell id="O41M7WIAvxW2O7x7Y7Ts-69" value="+ addItemToCart():void" style="text;html=1;align=center;verticalAlign=middle;resizable=0;points=[];autosize=1;strokeColor=none;" vertex="1" parent="7"><mxGeometry x="3" y="181" width="140" height="20" as="geometry"/></mxCell><mxCell id="9" value="itemList.vue" style="swimlane;" parent="1" vertex="1"><mxGeometry x="21" y="510" width="280" height="160" as="geometry"/></mxCell><mxCell id="12" value="- itemList:Array&amp;lt;Item&amp;gt;" style="text;html=1;align=center;verticalAlign=middle;resizable=0;points=[];autosize=1;strokeColor=none;" parent="9" vertex="1"><mxGeometry y="30" width="130" height="20" as="geometry"/></mxCell><mxCell id="17" value="- itemImage:string" style="text;html=1;align=center;verticalAlign=middle;resizable=0;points=[];autosize=1;strokeColor=none;" parent="9" vertex="1"><mxGeometry y="70" width="110" height="20" as="geometry"/></mxCell><mxCell id="19" value="- errorOfSearch:string&lt;br&gt;" style="text;html=1;align=center;verticalAlign=middle;resizable=0;points=[];autosize=1;strokeColor=none;" parent="9" vertex="1"><mxGeometry y="90" width="130" height="20" as="geometry"/></mxCell><mxCell id="13" value="- searchString:string" style="text;html=1;align=center;verticalAlign=middle;resizable=0;points=[];autosize=1;strokeColor=none;" parent="9" vertex="1"><mxGeometry y="50" width="120" height="20" as="geometry"/></mxCell><mxCell id="41" value="" style="endArrow=none;html=1;startArrow=none;" parent="9" edge="1"><mxGeometry width="50" height="50" relative="1" as="geometry"><mxPoint y="110" as="sourcePoint"/><mxPoint x="280" y="110" as="targetPoint"/><Array as="points"><mxPoint x="116" y="110"/></Array></mxGeometry></mxCell><mxCell id="30" value="+ search():void" style="text;html=1;align=center;verticalAlign=middle;resizable=0;points=[];autosize=1;strokeColor=none;" parent="9" vertex="1"><mxGeometry y="110" width="100" height="20" as="geometry"/></mxCell><mxCell id="44" value="+ created" style="text;html=1;align=center;verticalAlign=middle;resizable=0;points=[];autosize=1;strokeColor=none;" parent="9" vertex="1"><mxGeometry y="130" width="70" height="20" as="geometry"/></mxCell><mxCell id="6" value="login.vue" style="swimlane;" parent="1" vertex="1"><mxGeometry x="21" y="320" width="429" height="140" as="geometry"/></mxCell><mxCell id="8g1K3p20LejxtBm2tgvX-40" value="- password:string" style="text;html=1;align=center;verticalAlign=middle;resizable=0;points=[];autosize=1;strokeColor=none;" parent="6" vertex="1"><mxGeometry x="11" y="60" width="110" height="20" as="geometry"/></mxCell><mxCell id="8g1K3p20LejxtBm2tgvX-41" value="- mailAddress:string" style="text;html=1;align=center;verticalAlign=middle;resizable=0;points=[];autosize=1;strokeColor=none;" parent="6" vertex="1"><mxGeometry x="15" y="40" width="120" height="20" as="geometry"/></mxCell><mxCell id="hY5s72IZADYShjEi0Xvi-9" value="orderConfirm.vue" style="swimlane;" parent="1" vertex="1"><mxGeometry x="920" y="280" width="260" height="510" as="geometry"/></mxCell><mxCell id="11" value="-name:string" style="text;html=1;align=center;verticalAlign=middle;resizable=0;points=[];autosize=1;strokeColor=none;" parent="hY5s72IZADYShjEi0Xvi-9" vertex="1"><mxGeometry x="10" y="29" width="80" height="20" as="geometry"/></mxCell><mxCell id="14" value="-errorOfName:string" style="text;html=1;align=center;verticalAlign=middle;resizable=0;points=[];autosize=1;strokeColor=none;" parent="hY5s72IZADYShjEi0Xvi-9" vertex="1"><mxGeometry x="10" y="49" width="120" height="20" as="geometry"/></mxCell><mxCell id="15" value="-mailAddress:string" style="text;html=1;align=center;verticalAlign=middle;resizable=0;points=[];autosize=1;strokeColor=none;" parent="hY5s72IZADYShjEi0Xvi-9" vertex="1"><mxGeometry x="10" y="69" width="120" height="20" as="geometry"/></mxCell><mxCell id="16" value="-errorOfMailAddress:string" style="text;html=1;align=center;verticalAlign=middle;resizable=0;points=[];autosize=1;strokeColor=none;" parent="hY5s72IZADYShjEi0Xvi-9" vertex="1"><mxGeometry x="10" y="89" width="160" height="20" as="geometry"/></mxCell><mxCell id="18" value="-zipCode:string" style="text;html=1;align=center;verticalAlign=middle;resizable=0;points=[];autosize=1;strokeColor=none;" parent="hY5s72IZADYShjEi0Xvi-9" vertex="1"><mxGeometry x="10" y="109" width="100" height="20" as="geometry"/></mxCell><mxCell id="20" value="-errorOfZipCode:string" style="text;html=1;align=center;verticalAlign=middle;resizable=0;points=[];autosize=1;strokeColor=none;" parent="hY5s72IZADYShjEi0Xvi-9" vertex="1"><mxGeometry x="10" y="129" width="140" height="20" as="geometry"/></mxCell><mxCell id="21" value="-address:string" style="text;html=1;align=center;verticalAlign=middle;resizable=0;points=[];autosize=1;strokeColor=none;" parent="hY5s72IZADYShjEi0Xvi-9" vertex="1"><mxGeometry x="15" y="149" width="90" height="20" as="geometry"/></mxCell><mxCell id="22" value="-errorOfAddress:string" style="text;html=1;align=center;verticalAlign=middle;resizable=0;points=[];autosize=1;strokeColor=none;" parent="hY5s72IZADYShjEi0Xvi-9" vertex="1"><mxGeometry x="15" y="169" width="130" height="20" as="geometry"/></mxCell><mxCell id="24" value="-telephone:string" style="text;html=1;align=center;verticalAlign=middle;resizable=0;points=[];autosize=1;strokeColor=none;" parent="hY5s72IZADYShjEi0Xvi-9" vertex="1"><mxGeometry x="15" y="189" width="100" height="20" as="geometry"/></mxCell><mxCell id="25" value="-errorOfTelephone:string" style="text;html=1;align=center;verticalAlign=middle;resizable=0;points=[];autosize=1;strokeColor=none;" parent="hY5s72IZADYShjEi0Xvi-9" vertex="1"><mxGeometry x="10" y="209" width="150" height="20" as="geometry"/></mxCell><mxCell id="26" value="-deliveryDay:Date" style="text;html=1;align=center;verticalAlign=middle;resizable=0;points=[];autosize=1;strokeColor=none;" parent="hY5s72IZADYShjEi0Xvi-9" vertex="1"><mxGeometry x="15" y="229" width="110" height="20" as="geometry"/></mxCell><mxCell id="27" value="-deliveryTime:Date" style="text;html=1;align=center;verticalAlign=middle;resizable=0;points=[];autosize=1;strokeColor=none;" parent="hY5s72IZADYShjEi0Xvi-9" vertex="1"><mxGeometry x="10" y="249" width="120" height="20" as="geometry"/></mxCell><mxCell id="28" value="-errorOfDeliveryDay:string" style="text;html=1;align=center;verticalAlign=middle;resizable=0;points=[];autosize=1;strokeColor=none;" parent="hY5s72IZADYShjEi0Xvi-9" vertex="1"><mxGeometry x="15" y="269" width="150" height="20" as="geometry"/></mxCell><mxCell id="33" value="-errorOfDeliveryTime:string" style="text;html=1;align=center;verticalAlign=middle;resizable=0;points=[];autosize=1;strokeColor=none;" parent="hY5s72IZADYShjEi0Xvi-9" vertex="1"><mxGeometry x="15" y="289" width="160" height="20" as="geometry"/></mxCell><mxCell id="34" value="-paymentMethod:string" style="text;html=1;align=center;verticalAlign=middle;resizable=0;points=[];autosize=1;strokeColor=none;" parent="hY5s72IZADYShjEi0Xvi-9" vertex="1"><mxGeometry x="15" y="309" width="140" height="20" as="geometry"/></mxCell><mxCell id="35" value="-cartList:Array&amp;lt;OrderItem&amp;gt;" style="text;html=1;align=center;verticalAlign=middle;resizable=0;points=[];autosize=1;strokeColor=none;" parent="hY5s72IZADYShjEi0Xvi-9" vertex="1"><mxGeometry x="15" y="329" width="160" height="20" as="geometry"/></mxCell><mxCell id="47" value="" style="endArrow=none;html=1;" parent="hY5s72IZADYShjEi0Xvi-9" edge="1"><mxGeometry width="50" height="50" relative="1" as="geometry"><mxPoint y="409" as="sourcePoint"/><mxPoint x="260" y="409" as="targetPoint"/></mxGeometry></mxCell><mxCell id="65" value="+ async order():Promice&amp;lt;void&amp;gt;" style="text;html=1;align=center;verticalAlign=middle;resizable=0;points=[];autosize=1;strokeColor=none;" parent="hY5s72IZADYShjEi0Xvi-9" vertex="1"><mxGeometry x="10" y="430" width="180" height="20" as="geometry"/></mxCell><mxCell id="O41M7WIAvxW2O7x7Y7Ts-77" value="+ created()&lt;br&gt;カートの中身を一覧表示" style="text;html=1;align=center;verticalAlign=middle;resizable=0;points=[];autosize=1;strokeColor=none;" vertex="1" parent="hY5s72IZADYShjEi0Xvi-9"><mxGeometry x="12" y="458" width="150" height="30" as="geometry"/></mxCell><mxCell id="8g1K3p20LejxtBm2tgvX-10" value="orderFinished.vue" style="swimlane;" parent="1" vertex="1"><mxGeometry x="920" y="830" width="200" height="70" as="geometry"/></mxCell><mxCell id="59" value="+ created()" style="text;html=1;align=center;verticalAlign=middle;resizable=0;points=[];autosize=1;strokeColor=none;" parent="8g1K3p20LejxtBm2tgvX-10" vertex="1"><mxGeometry y="30" width="70" height="20" as="geometry"/></mxCell><mxCell id="5" value="cartList.vue" style="swimlane;" parent="1" vertex="1"><mxGeometry x="920" y="30" width="290" height="235" as="geometry"/></mxCell><mxCell id="8g1K3p20LejxtBm2tgvX-45" value="- cartList:Array&amp;lt;OrderItem&amp;gt;" style="text;html=1;align=center;verticalAlign=middle;resizable=0;points=[];autosize=1;strokeColor=none;" parent="5" vertex="1"><mxGeometry x="32" y="40" width="160" height="20" as="geometry"/></mxCell><mxCell id="48" value="" style="endArrow=none;html=1;startArrow=none;" parent="5" edge="1"><mxGeometry width="50" height="50" relative="1" as="geometry"><mxPoint y="70" as="sourcePoint"/><mxPoint x="290" y="70" as="targetPoint"/><Array as="points"><mxPoint x="207" y="70"/></Array></mxGeometry></mxCell><mxCell id="8g1K3p20LejxtBm2tgvX-49" value="+ deleteItem(index:number):void" style="text;html=1;align=center;verticalAlign=middle;resizable=0;points=[];autosize=1;strokeColor=none;" parent="5" vertex="1"><mxGeometry x="10" y="136" width="190" height="20" as="geometry"/></mxCell><mxCell id="50" value="+ get nonItemMsg():string" style="text;html=1;align=center;verticalAlign=middle;resizable=0;points=[];autosize=1;strokeColor=none;" parent="5" vertex="1"><mxGeometry x="14" y="110" width="150" height="20" as="geometry"/></mxCell><mxCell id="O41M7WIAvxW2O7x7Y7Ts-76" value="+ created()&lt;br&gt;カートの中身を一覧表示" style="text;html=1;align=center;verticalAlign=middle;resizable=0;points=[];autosize=1;strokeColor=none;" vertex="1" parent="5"><mxGeometry x="12" y="179.5" width="150" height="30" as="geometry"/></mxCell><mxCell id="4" value="logout.vue" style="swimlane;" parent="1" vertex="1"><mxGeometry x="920" y="930" width="200" height="100" as="geometry"/></mxCell><mxCell id="66" value="+ async&amp;nbsp; logout():Promise&amp;lt;void&amp;gt;" style="text;html=1;align=center;verticalAlign=middle;resizable=0;points=[];autosize=1;strokeColor=none;" parent="4" vertex="1"><mxGeometry x="5" y="50" width="190" height="20" as="geometry"/></mxCell><mxCell id="8g1K3p20LejxtBm2tgvX-43" value="+ async login():Promise&amp;lt;void&amp;gt;" style="text;html=1;align=center;verticalAlign=middle;resizable=0;points=[];autosize=1;strokeColor=none;" parent="1" vertex="1"><mxGeometry x="31" y="430" width="180" height="20" as="geometry"/></mxCell><mxCell id="51" value="+ goOrderPage():void" style="text;html=1;align=center;verticalAlign=middle;resizable=0;points=[];autosize=1;strokeColor=none;" parent="1" vertex="1"><mxGeometry x="932" y="189" width="130" height="20" as="geometry"/></mxCell><mxCell id="56" value="store/index.ts" style="swimlane;" parent="1" vertex="1"><mxGeometry x="510" y="495" width="350" height="345" as="geometry"/></mxCell><mxCell id="58" value="+ showItemList(state,payload)(mutation)&lt;br&gt;※価格順にソート" style="text;html=1;align=center;verticalAlign=middle;resizable=0;points=[];autosize=1;strokeColor=none;" parent="56" vertex="1"><mxGeometry x="20" y="140" width="230" height="30" as="geometry"/></mxCell><mxCell id="61" value="items:Array&amp;lt;Item&amp;gt;" style="text;html=1;align=center;verticalAlign=middle;resizable=0;points=[];autosize=1;strokeColor=none;" parent="56" vertex="1"><mxGeometry x="25" y="35" width="110" height="20" as="geometry"/></mxCell><mxCell id="60" value="+ getItemList(state)(getter)" style="text;html=1;align=center;verticalAlign=middle;resizable=0;points=[];autosize=1;strokeColor=none;" parent="56" vertex="1"><mxGeometry x="20" y="265" width="160" height="20" as="geometry"/></mxCell><mxCell id="57" value="+ async&amp;nbsp; getItemList(context)(action)" style="text;html=1;align=center;verticalAlign=middle;resizable=0;points=[];autosize=1;strokeColor=none;" parent="56" vertex="1"><mxGeometry x="20" y="105" width="210" height="20" as="geometry"/></mxCell><mxCell id="69" value="" style="endArrow=none;html=1;" parent="56" edge="1"><mxGeometry width="50" height="50" relative="1" as="geometry"><mxPoint y="90" as="sourcePoint"/><mxPoint x="350" y="90" as="targetPoint"/></mxGeometry></mxCell><mxCell id="O41M7WIAvxW2O7x7Y7Ts-71" style="edgeStyle=none;html=1;dashed=1;" edge="1" parent="56"><mxGeometry relative="1" as="geometry"><mxPoint y="195" as="targetPoint"/><mxPoint x="-80" y="312" as="sourcePoint"/></mxGeometry></mxCell><mxCell id="71" value="cartList:Array&amp;lt;OrderItem&amp;gt;" style="text;html=1;align=center;verticalAlign=middle;resizable=0;points=[];autosize=1;strokeColor=none;" vertex="1" parent="56"><mxGeometry x="25" y="55" width="150" height="20" as="geometry"/></mxCell><mxCell id="72" value="+ deleteItem(state,index:number)(mutation)&lt;br&gt;→カート削除用" style="text;html=1;align=center;verticalAlign=middle;resizable=0;points=[];autosize=1;strokeColor=none;" vertex="1" parent="56"><mxGeometry x="20" y="220" width="250" height="30" as="geometry"/></mxCell><mxCell id="74" value="+ addItemToCart(state)(mutation)&lt;br&gt;→カートに追加用" style="text;html=1;align=center;verticalAlign=middle;resizable=0;points=[];autosize=1;strokeColor=none;" vertex="1" parent="56"><mxGeometry x="20" y="180" width="190" height="30" as="geometry"/></mxCell><mxCell id="67" value="" style="endArrow=none;html=1;" parent="1" edge="1"><mxGeometry width="50" height="50" relative="1" as="geometry"><mxPoint x="20" y="410" as="sourcePoint"/><mxPoint x="447" y="410" as="targetPoint"/></mxGeometry></mxCell><mxCell id="68" style="edgeStyle=none;html=1;entryX=1;entryY=0.5;entryDx=0;entryDy=0;exitX=1;exitY=0.5;exitDx=0;exitDy=0;dashed=1;" parent="1" edge="1" source="9"><mxGeometry relative="1" as="geometry"><mxPoint x="510" y="583" as="targetPoint"/></mxGeometry></mxCell><mxCell id="O41M7WIAvxW2O7x7Y7Ts-75" style="edgeStyle=none;html=1;dashed=1;" edge="1" parent="1"><mxGeometry relative="1" as="geometry"><mxPoint x="770" y="490" as="targetPoint"/><mxPoint x="920" y="240" as="sourcePoint"/></mxGeometry></mxCell><mxCell id="75" value="+ getCartList(state)(getter)" style="text;html=1;align=center;verticalAlign=middle;resizable=0;points=[];autosize=1;strokeColor=none;" vertex="1" parent="1"><mxGeometry x="530" y="800" width="160" height="20" as="geometry"/></mxCell><mxCell id="76" style="edgeStyle=none;html=1;dashed=1;" edge="1" parent="1"><mxGeometry relative="1" as="geometry"><mxPoint x="860" y="640" as="targetPoint"/><mxPoint x="920" y="510" as="sourcePoint"/></mxGeometry></mxCell></root></mxGraphModel></diagram><diagram id="rqsTFQWoGZ09i4zTo02N" name="ページ1"><mxGraphModel dx="862" dy="570" grid="1" gridSize="10" guides="1" tooltips="1" connect="1" arrows="1" fold="1" page="1" pageScale="1" pageWidth="827" pageHeight="1169" math="0" shadow="0"><root><mxCell id="0"/><mxCell id="1" parent="0"/></root></mxGraphModel></diagram></mxfile>